<svg xmlns="http://www.w3.org/2000/svg" viewBox="0 0 48 48">
  <g fill="none" stroke="#003F88" stroke-width="2.4" stroke-linecap="round">
    <ellipse cx="17" cy="12" rx="9" ry="4.2" fill="#8aa6c9" stroke="none"/>
    <path d="M8 12v18c0 2.3 4 4.2 9 4.2s9-1.9 9-4.2V12"/>
    <path d="M8 12c0 2.3 4 4.2 9 4.2s9-1.9 9-4.2"/>
    <path d="M8 21c0 2.3 4 4.2 9 4.2s9-1.9 9-4.2"/>
  </g>
  <path d="M27 22h11a3 3 0 0 1 3 3v6a3 3 0 0 1-3 3h-6l-4 4v-4h-1a3 3 0 0 1-3-3v-6a3 3 0 0 1 3-3z" fill="#6b8cbe"/>
  <g stroke="#fff" stroke-width="2" stroke-linecap="round">
    <path d="M29 27h8"/>
    <path d="M29 30.5h5"/>
  </g>
</svg>
